<?xml version="1.0" encoding="UTF-8"?>
<svg version="1.1" xmlns="http://www.w3.org/2000/svg" width="56" height="60">
<path d="M0 0 C1.93166016 0.01740234 1.93166016 0.01740234 3.90234375 0.03515625 C5.19269531 0.04417969 6.48304687 0.05320313 7.8125 0.0625 C8.81152344 0.07410156 9.81054688 0.08570313 10.83984375 0.09765625 C11.46484375 2.47265625 11.46484375 2.47265625 11.83984375 5.09765625 C11.17984375 5.75765625 10.51984375 6.41765625 9.83984375 7.09765625 C8.84984375 7.09765625 7.85984375 7.09765625 6.83984375 7.09765625 C6.83984375 8.08765625 6.83984375 9.07765625 6.83984375 10.09765625 C7.85046875 10.18015625 8.86109375 10.26265625 9.90234375 10.34765625 C14.21771291 10.93771693 17.18722572 12.78681627 20.83984375 15.09765625 C20.17984375 14.10765625 19.51984375 13.11765625 18.83984375 12.09765625 C19.08984375 9.97265625 19.08984375 9.97265625 19.83984375 8.09765625 C22.88968371 6.57273627 25.48218065 6.86203077 28.83984375 7.09765625 C30.77734375 8.16015625 30.77734375 8.16015625 31.83984375 10.09765625 C32.49866728 16.24667586 32.49866728 16.24667586 30.33984375 19.03515625 C29.84484375 19.38578125 29.34984375 19.73640625 28.83984375 20.09765625 C26.36484375 19.10765625 26.36484375 19.10765625 23.83984375 18.09765625 C24.11699219 18.64035156 24.39414062 19.18304687 24.6796875 19.7421875 C25.22302734 20.81533203 25.22302734 20.81533203 25.77734375 21.91015625 C26.31681641 22.97169922 26.31681641 22.97169922 26.8671875 24.0546875 C29.62033644 29.83740595 30.036587 36.55094444 27.98046875 42.64453125 C27.27689975 44.16383242 26.54989973 45.67256274 25.796875 47.16796875 C24.19210512 50.40370884 23.83984375 53.27586042 23.83984375 56.84765625 C23.83984375 57.59015625 23.83984375 58.33265625 23.83984375 59.09765625 C22.83984375 60.09765625 22.83984375 60.09765625 20.27734375 60.16015625 C19.47296875 60.13953125 18.66859375 60.11890625 17.83984375 60.09765625 C17.50984375 59.10765625 17.17984375 58.11765625 16.83984375 57.09765625 C16.15019531 57.32582031 15.46054687 57.55398437 14.75 57.7890625 C5.93378819 60.48592839 -0.52334776 60.41950567 -9.16015625 57.09765625 C-9.49015625 58.08765625 -9.82015625 59.07765625 -10.16015625 60.09765625 C-11.8262753 60.14037725 -13.4939851 60.13829457 -15.16015625 60.09765625 C-15.49015625 59.76765625 -15.82015625 59.43765625 -16.16015625 59.09765625 C-16.1276747 57.72161984 -16.05880486 56.34637735 -15.97265625 54.97265625 C-15.89137845 49.86841069 -17.38015165 47.30978443 -20.16015625 43.09765625 C-22.28066363 36.73613411 -21.9564491 30.14656998 -19.22265625 24.03515625 C-18.55525844 22.71232116 -17.8714523 21.39741409 -17.16015625 20.09765625 C-16.83015625 19.43765625 -16.50015625 18.77765625 -16.16015625 18.09765625 C-17.81015625 18.75765625 -19.46015625 19.41765625 -21.16015625 20.09765625 C-22.66015625 19.03515625 -22.66015625 19.03515625 -24.16015625 17.09765625 C-24.52544602 13.68828505 -24.77421915 11.21741801 -23.09765625 8.16015625 C-20.07378149 6.50190235 -17.53628642 6.79621606 -14.16015625 7.09765625 C-13.17015625 7.75765625 -12.18015625 8.41765625 -11.16015625 9.09765625 C-11.66619617 11.26639877 -12.15999438 13.09733252 -13.16015625 15.09765625 C-12.4846875 14.73671875 -11.80921875 14.37578125 -11.11328125 14.00390625 C-10.22125 13.53984375 -9.32921875 13.07578125 -8.41015625 12.59765625 C-7.5284375 12.13359375 -6.64671875 11.66953125 -5.73828125 11.19140625 C-3.16015625 10.09765625 -3.16015625 10.09765625 0.83984375 10.09765625 C0.83984375 9.10765625 0.83984375 8.11765625 0.83984375 7.09765625 C-0.48015625 6.76765625 -1.80015625 6.43765625 -3.16015625 6.09765625 C-3.54234392 4.44150968 -3.87410727 2.77308601 -4.16015625 1.09765625 C-3.16015625 0.09765625 -3.16015625 0.09765625 0 0 Z " fill="#E85A6D" transform="translate(24.16015625,-0.09765625)"/>
<path d="M0 0 C7.07226572 1.04003908 11.3136167 3.91078535 15.80078125 9.28125 C19.16743657 14.10642374 18.52125925 20.3927398 18 26 C15.68384635 31.00289189 11.66976077 35.04506839 7 38 C4.55460174 38.72791038 2.57535558 38.89488345 0 39 C0 37.35 0 35.7 0 34 C-0.66 34 -1.32 34 -2 34 C-2 35.32 -2 36.64 -2 38 C-5.9959469 38.68016118 -7.9502743 38.68727969 -11.3984375 36.4296875 C-16.69539837 31.92127097 -19.52340743 28.6956088 -20.23828125 21.65234375 C-20.5636133 15.48962514 -19.69120079 11.95398 -16 7 C-12.60825115 3.66881809 -9.76243782 1.03524876 -4.875 0.9375 C-3.92625 0.958125 -2.9775 0.97875 -2 1 C-2 2.32 -2 3.64 -2 5 C-1.34 5 -0.68 5 0 5 C0 3.35 0 1.7 0 0 Z " fill="#E7EBF0" transform="translate(29,15)"/>
<path d="M0 0 C1.9375 1.0625 1.9375 1.0625 3 3 C3.65882353 9.14901961 3.65882353 9.14901961 1.5 11.9375 C1.005 12.288125 0.51 12.63875 0 13 C-1.65 12.34 -3.3 11.68 -5 11 C-4.58427734 11.81404297 -4.58427734 11.81404297 -4.16015625 12.64453125 C-3.79792969 13.35996094 -3.43570313 14.07539063 -3.0625 14.8125 C-2.70285156 15.52019531 -2.34320313 16.22789063 -1.97265625 16.95703125 C0.78049269 22.7397497 1.19674325 29.45328819 -0.859375 35.546875 C-1.562944 37.06617617 -2.28994402 38.57490649 -3.04296875 40.0703125 C-4.64773863 43.30605259 -5 46.17820417 -5 49.75 C-5 50.4925 -5 51.235 -5 52 C-6 53 -6 53 -8.5625 53.0625 C-9.366875 53.041875 -10.17125 53.02125 -11 53 C-11.495 51.515 -11.495 51.515 -12 50 C-13.299375 50.495 -13.299375 50.495 -14.625 51 C-17.95718275 51.98731341 -20.55159538 52.16420974 -24 52 C-23.484375 51.7525 -22.96875 51.505 -22.4375 51.25 C-21.633125 50.8375 -20.82875 50.425 -20 50 C-18.88625 49.46375 -17.7725 48.9275 -16.625 48.375 C-10.80067288 45.03070895 -7.08514111 39.28398692 -5 33 C-4.06786194 25.74883299 -4.9242241 20.07370527 -9 14 C-9.37382813 13.4328125 -9.74765625 12.865625 -10.1328125 12.28125 C-14.13180719 6.87863466 -19.54187471 4.97850383 -26 4 C-26 3.67 -26 3.34 -26 3 C-18.75420281 2.32909285 -14.24161903 4.41874318 -8 8 C-8.66 7.01 -9.32 6.02 -10 5 C-9.75 2.875 -9.75 2.875 -9 1 C-5.95016004 -0.52491998 -3.3576631 -0.23562548 0 0 Z " fill="#E4485D" transform="translate(53,7)"/>
<path d="M0 0 C5.44744427 2.5150078 9.07778578 6.20862054 11.6484375 11.67578125 C13.62521178 17.53674357 13.48799888 24.03947095 10.9140625 29.69140625 C7.78862475 35.08085368 3.46300017 38.35602803 -2.4609375 40.31640625 C-9.54832005 41.17850784 -15.92699631 41.25590899 -21.80859375 36.87890625 C-27.20257568 31.77821412 -29.54905911 26.98270244 -29.7734375 19.56640625 C-29.68908564 14.35192791 -28.68000354 10.46917929 -25.4609375 6.31640625 C-17.88445862 -0.55632854 -10.20672367 -2.83520102 0 0 Z M-7.4609375 0.31640625 C-7.4609375 1.96640625 -7.4609375 3.61640625 -7.4609375 5.31640625 C-8.1209375 5.31640625 -8.7809375 5.31640625 -9.4609375 5.31640625 C-9.4609375 3.99640625 -9.4609375 2.67640625 -9.4609375 1.31640625 C-14.79404719 0.80849104 -17.32214331 1.97014712 -21.4609375 5.31640625 C-25.68330345 9.35111149 -27.16718109 12.33315377 -27.453125 18.0234375 C-27.45570312 18.78011719 -27.45828125 19.53679688 -27.4609375 20.31640625 C-27.48414063 21.00089844 -27.50734375 21.68539062 -27.53125 22.390625 C-27.33853125 27.84028287 -24.89981363 30.75403217 -21.25 34.65234375 C-18.28936263 37.40612436 -16.8921307 38.30178953 -12.7734375 38.44140625 C-11.13375 38.37953125 -11.13375 38.37953125 -9.4609375 38.31640625 C-9.4609375 36.99640625 -9.4609375 35.67640625 -9.4609375 34.31640625 C-8.8009375 34.31640625 -8.1409375 34.31640625 -7.4609375 34.31640625 C-7.4609375 35.96640625 -7.4609375 37.61640625 -7.4609375 39.31640625 C-1.02264264 39.31640625 1.96316283 36.69498546 6.62109375 32.421875 C10.94580792 27.67437818 10.97336072 23.55035223 10.8515625 17.29296875 C10.2642091 11.69842763 7.76750103 8.22849212 3.6015625 4.50390625 C-0.16188739 1.81572776 -2.81739376 0.31640625 -7.4609375 0.31640625 Z " fill="#F18D9A" transform="translate(36.4609375,14.68359375)"/>
<path d="M0 0 C0.99 0.66 1.98 1.32 3 2 C2.52591957 6.26672384 0.11692878 8.2455048 -3 11 C-5.3125 12.3125 -5.3125 12.3125 -7 13 C-8.5 11.9375 -8.5 11.9375 -10 10 C-10.36528977 6.5906288 -10.6140629 4.11976176 -8.9375 1.0625 C-5.91362524 -0.5957539 -3.37613017 -0.30144019 0 0 Z " fill="#E95468" transform="translate(10,7)"/>
<path d="M0 0 C4.62 0 9.24 0 14 0 C14.33 1.65 14.66 3.3 15 5 C13 7 13 7 10.25 7.265625 C9.1775 7.26046875 8.105 7.2553125 7 7.25 C5.39125 7.25773438 5.39125 7.25773438 3.75 7.265625 C1 7 1 7 -1 5 C-0.67 3.35 -0.34 1.7 0 0 Z " fill="#EB5469" transform="translate(21,0)"/>
<path d="M0 0 C4.11943199 2.89473599 6.37127955 5.19956079 8 10 C8.63343199 15.62364012 8.79753165 20.34586028 6.3125 25.5 C4.03057978 27.96694078 1.72296701 30.03341271 -1 32 C0.12432075 29.7513585 1.22601514 27.66097729 2.625 25.5625 C4.88616154 19.704036 5.40515079 12.62541069 3.09765625 6.671875 C1.9161478 4.61045843 1.9161478 4.61045843 0 2 C0 1.34 0 0.68 0 0 Z " fill="#D1D8DC" transform="translate(39,19)"/>
<path d="M0 0 C0.33 0.66 0.66 1.32 1 2 C3.02463255 2.65213292 3.02463255 2.65213292 5 3 C3.68 3 2.36 3 1 3 C2.33388324 9.90562468 4.27094046 14.31790858 9.859375 18.7265625 C12.99393366 20.5912817 15.37717315 20.92452444 19 21 C19 19.68 19 18.36 19 17 C19.66 17 20.32 17 21 17 C21 18.65 21 20.3 21 22 C22.65 22 24.3 22 26 22 C26 22.33 26 22.66 26 23 C12.45285457 23.92930113 12.45285457 23.92930113 6.65234375 19.5390625 C1.24849215 14.50568772 -0.53956778 10.45230714 -1.0546875 3.0390625 C-1 1 -1 1 0 0 Z " fill="#E895A0" transform="translate(8,32)"/>
<path d="M0 0 C0.66 0 1.32 0 2 0 C2.33 2.64 2.66 5.28 3 8 C4.98 8.66 6.96 9.32 9 10 C9 10.99 9 11.98 9 13 C7.54536519 13.38909985 6.08608793 13.76088029 4.625 14.125 C3.81289063 14.33382812 3.00078125 14.54265625 2.1640625 14.7578125 C1.44992188 14.83773437 0.73578125 14.91765625 0 15 C-0.66 14.34 -1.32 13.68 -2 13 C-1.7578125 9.9609375 -1.7578125 9.9609375 -1.125 6.375 C-0.92132812 5.18648437 -0.71765625 3.99796875 -0.5078125 2.7734375 C-0.34023438 1.85820312 -0.17265625 0.94296875 0 0 Z " fill="#CCB288" transform="translate(27,23)"/>
<path d="M0 0 C2.99603507 4.4940526 2.57650059 8.73222583 2 14 C0.26213655 19.87516335 -2.90508654 23.70329129 -8 27 C-11.875 27.8125 -11.875 27.8125 -15 28 C-14.13761719 27.60941406 -14.13761719 27.60941406 -13.2578125 27.2109375 C-10.83185323 25.90981748 -8.94941474 24.43123945 -6.875 22.625 C-6.19179688 22.03976563 -5.50859375 21.45453125 -4.8046875 20.8515625 C-0.83133909 16.77501024 -0.62505719 12.76167727 -0.375 7.25 C-0.31699219 6.20392578 -0.31699219 6.20392578 -0.2578125 5.13671875 C-0.16401376 3.42489182 -0.08093826 1.71248318 0 0 Z " fill="#F18996" transform="translate(47,26)"/>
<path d="M0 0 C3.65316671 1.24976756 4.78065836 1.67098753 7 5 C6.01 6.485 6.01 6.485 5 8 C2.4375 8.25 2.4375 8.25 0 8 C-0.33 7.67 -0.66 7.34 -1 7 C-0.71269945 4.66055264 -0.38063221 2.3260857 0 0 Z " fill="#BCBCBC" transform="translate(9,52)"/>
<path d="M0 0 C0.38063221 2.3260857 0.71269945 4.66055264 1 7 C0 8 0 8 -2.5625 8.0625 C-3.366875 8.041875 -4.17125 8.02125 -5 8 C-5.66 6.68 -6.32 5.36 -7 4 C-2.25 0 -2.25 0 0 0 Z " fill="#BCBCBC" transform="translate(47,52)"/>
<path d="M0 0 C0 0.66 0 1.32 0 2 C-0.9075 2.598125 -1.815 3.19625 -2.75 3.8125 C-8.34981326 7.58160508 -10.60697486 11.89778588 -13 18 C-14.07369947 14.80023338 -14.03200295 13.16156627 -12.5625 10.125 C-10.2117241 5.72038831 -5.38055796 0 0 0 Z " fill="#F38B98" transform="translate(21,15)"/>
<path d="M0 0 C4.34586828 -0.39507893 6.32003497 -0.45331002 10 2 C9.67 3.32 9.34 4.64 9 6 C7.948125 5.5359375 7.948125 5.5359375 6.875 5.0625 C3.91063343 3.96697322 1.12301892 3.43577008 -2 3 C-1.34 2.01 -0.68 1.02 0 0 Z " fill="#E73B54" transform="translate(3,7)"/>
<path d="M0 0 C0.99 0.66 1.98 1.32 3 2 C3.66932271 8.13545817 3.66932271 8.13545817 1.5 10.9375 C1.005 11.288125 0.51 11.63875 0 12 C-1.32 11.34 -2.64 10.68 -4 10 C-3.525625 9.46375 -3.05125 8.9275 -2.5625 8.375 C-0.71813924 5.57157164 -0.37543153 3.30379742 0 0 Z " fill="#E53C52" transform="translate(53,8)"/>
<path d="M0 0 C0.99 0 1.98 0 3 0 C2.85562749 6.92988052 -0.22255343 10.19760593 -5 15 C-5 11.46939751 -3.7367975 9.74724072 -1.95703125 6.78515625 C-0.77214694 4.57498429 -0.30058588 2.47983352 0 0 Z " fill="#DBE1E6" transform="translate(44,36)"/>
<path d="M0 0 C4.29 0 8.58 0 13 0 C13 0.66 13 1.32 13 2 C11.35 1.67 9.7 1.34 8 1 C8 2.65 8 4.3 8 6 C7.34 6 6.68 6 6 6 C6 4.68 6 3.36 6 2 C4.02 2 2.04 2 0 2 C0 1.34 0 0.68 0 0 Z " fill="#E09DA6" transform="translate(21,14)"/>
<path d="M0 0 C2.475 0.495 2.475 0.495 5 1 C4.67 2.65 4.34 4.3 4 6 C2.68 6.33 1.36 6.66 0 7 C0 4.69 0 2.38 0 0 Z " fill="#E63B51" transform="translate(31,0)"/>
<path d="M0 0 C1.98 0 3.96 0 6 0 C6 1.32 6 2.64 6 4 C4.02 4 2.04 4 0 4 C0 2.68 0 1.36 0 0 Z " fill="#A89FA0" transform="translate(25,6)"/>
<path d="M0 0 C0.33 0.99 0.66 1.98 1 3 C-0.65 4.32 -2.3 5.64 -4 7 C-4.33 6.01 -4.66 5.02 -5 4 C-3.35 2.68 -1.7 1.36 0 0 Z " fill="#AFA9AA" transform="translate(45,52)"/>
<path d="M0 0 C2.5 1.3125 2.5 1.3125 5 3 C5 3.99 5 4.98 5 6 C3.0625 5.25 3.0625 5.25 1 4 C0.25 1.875 0.25 1.875 0 0 Z " fill="#AFA9A9" transform="translate(10,52)"/>
</svg>
