<?xml version="1.0" encoding="UTF-8"?>
<svg version="1.1" xmlns="http://www.w3.org/2000/svg" width="60" height="60">
<path d="M0 0 C1 1 1 1 1.09765625 2.84765625 C1.06510417 4.8984375 1.03255208 6.94921875 1 9 C1.58523437 9.10054687 2.17046875 9.20109375 2.7734375 9.3046875 C9.56796332 10.79417814 15.27909469 13.51927977 21.3125 16.875 C22.07675293 17.29765137 22.84100586 17.72030273 23.62841797 18.15576172 C34.74673475 24.49346949 34.74673475 24.49346949 37 29 C37.0962762 31.01896864 37.12981825 33.0412429 37.125 35.0625 C37.12886719 36.68865234 37.12886719 36.68865234 37.1328125 38.34765625 C37 41 37 41 36 42 C35.63239269 44.32817964 35.29758419 46.6618385 35 49 C34.05125 49.04125 33.1025 49.0825 32.125 49.125 C26.8170625 49.86463064 22.19366262 52.77039775 18 56 C17.67 56.99 17.34 57.98 17 59 C15.68 59 14.36 59 13 59 C12.78174561 58.41049561 12.56349121 57.82099121 12.33862305 57.21362305 C10.55414177 54.26270353 8.57800956 53.27035515 5.58203125 51.58203125 C4.49212891 50.96779297 3.40222656 50.35355469 2.27929688 49.72070312 C1.13525391 49.09099609 -0.00878906 48.46128906 -1.1875 47.8125 C-2.31220703 47.17119141 -3.43691406 46.52988281 -4.59570312 45.86914062 C-5.69205078 45.25876953 -6.78839844 44.64839844 -7.91796875 44.01953125 C-8.91594482 43.46370361 -9.9139209 42.90787598 -10.94213867 42.33520508 C-14.32528357 40.857966 -17.34809443 40.42066567 -21 40 C-21.66 39.67 -22.32 39.34 -23 39 C-23.22359275 34.83773496 -23.38625784 30.67869784 -23.49438477 26.51220703 C-23.5394723 25.09752509 -23.60076961 23.68325869 -23.67895508 22.27001953 C-24.31258537 10.51679877 -24.31258537 10.51679877 -21.08398438 6.78588867 C-18.77754192 5.24880952 -16.53381279 4.111246 -14 3 C-12.7869392 2.19457515 -11.57815181 1.38265329 -10.375 0.5625 C-6.35509766 -1.2985659 -4.23569382 -1.10128039 0 0 Z " fill="#E5E0F3" transform="translate(23,1)"/>
<path d="M0 0 C1 1 1 1 1.09765625 2.84765625 C1.06510417 4.8984375 1.03255208 6.94921875 1 9 C0.01 9.061875 -0.98 9.12375 -2 9.1875 C-8.6369082 10.14138762 -15.04689023 14.72918697 -19 20 C-19.67818878 23.0012384 -19.92638218 25.92812912 -20 29 C-19.2575 29.28875 -18.515 29.5775 -17.75 29.875 C-16.8425 30.24625 -15.935 30.6175 -15 31 C-14.278125 31.2475 -13.55625 31.495 -12.8125 31.75 C-11 33 -11 33 -10.20239258 35.859375 C-8.73804216 39.68422856 -7.46018158 40.49566547 -3.94921875 42.5 C-2.94052734 43.07621094 -1.93183594 43.65242188 -0.89257812 44.24609375 C0.16509766 44.82488281 1.22277344 45.40367188 2.3125 46 C3.88161133 46.91458984 3.88161133 46.91458984 5.48242188 47.84765625 C6.49498047 48.41355469 7.50753906 48.97945312 8.55078125 49.5625 C9.47544189 50.07941406 10.40010254 50.59632812 11.3527832 51.12890625 C13.98324222 52.2656972 13.98324222 52.2656972 16.62304688 51.27392578 C20.50487045 49.1934661 24.30439887 46.99134098 28.09179688 44.74609375 C32.79435668 42 32.79435668 42 35 42 C35 44.31 35 46.62 35 49 C34.05125 49.04125 33.1025 49.0825 32.125 49.125 C26.8170625 49.86463064 22.19366262 52.77039775 18 56 C17.67 56.99 17.34 57.98 17 59 C15.68 59 14.36 59 13 59 C12.78174561 58.41049561 12.56349121 57.82099121 12.33862305 57.21362305 C10.55414177 54.26270353 8.57800956 53.27035515 5.58203125 51.58203125 C4.49212891 50.96779297 3.40222656 50.35355469 2.27929688 49.72070312 C1.13525391 49.09099609 -0.00878906 48.46128906 -1.1875 47.8125 C-2.31220703 47.17119141 -3.43691406 46.52988281 -4.59570312 45.86914062 C-5.69205078 45.25876953 -6.78839844 44.64839844 -7.91796875 44.01953125 C-8.91594482 43.46370361 -9.9139209 42.90787598 -10.94213867 42.33520508 C-14.32528357 40.857966 -17.34809443 40.42066567 -21 40 C-21.66 39.67 -22.32 39.34 -23 39 C-23.22359275 34.83773496 -23.38625784 30.67869784 -23.49438477 26.51220703 C-23.5394723 25.09752509 -23.60076961 23.68325869 -23.67895508 22.27001953 C-24.31258537 10.51679877 -24.31258537 10.51679877 -21.08398438 6.78588867 C-18.77754192 5.24880952 -16.53381279 4.111246 -14 3 C-12.7869392 2.19457515 -11.57815181 1.38265329 -10.375 0.5625 C-6.35509766 -1.2985659 -4.23569382 -1.10128039 0 0 Z " fill="#8D4B22" transform="translate(23,1)"/>
<path d="M0 0 C1 1 1 1 1.09765625 2.84765625 C1.06510417 4.8984375 1.03255208 6.94921875 1 9 C0.01 9.061875 -0.98 9.12375 -2 9.1875 C-9.10614892 10.2088291 -14.2437727 14.9555165 -19 20 C-19.33 20 -19.66 20 -20 20 C-20 17.36 -20 14.72 -20 12 C-20.99 12 -21.98 12 -23 12 C-22.39885328 8.34342616 -22.06889294 8.05265757 -18.8671875 5.60546875 C-17.54461458 4.78616404 -16.2134473 3.98060665 -14.875 3.1875 C-14.22273437 2.76791016 -13.57046875 2.34832031 -12.8984375 1.91601562 C-8.27254703 -0.86961484 -5.42103822 -1.45526599 0 0 Z " fill="#7662BA" transform="translate(23,1)"/>
<path d="M0 0 C0.66 0.33 1.32 0.66 2 1 C1.67 1.66 1.34 2.32 1 3 C4.66305234 3.74926071 7.42355152 4.2380014 11 3 C11.33 3.66 11.66 4.32 12 5 C6.25 9 6.25 9 4 9 C3.34 12.63 2.68 16.26 2 20 C-1.13384992 18.74646003 -4.03145514 17.53924548 -7 16 C-7.78693051 7.97330879 -7.78693051 7.97330879 -4.625 4.0625 C-3.75875 3.381875 -2.8925 2.70125 -2 2 C-1.34 1.34 -0.68 0.68 0 0 Z " fill="#D5CEED" transform="translate(10,14)"/>
<path d="M0 0 C0 2.31 0 4.62 0 7 C-1.423125 7.061875 -1.423125 7.061875 -2.875 7.125 C-8.1829375 7.86463064 -12.80633738 10.77039775 -17 14 C-17.33 14.99 -17.66 15.98 -18 17 C-18.66 17 -19.32 17 -20 17 C-20.5625 14.375 -20.5625 14.375 -20 11 C-17.29893428 8.50526569 -14.19449853 6.79449993 -11 5 C-9.74703125 4.26330078 -9.74703125 4.26330078 -8.46875 3.51171875 C-2.37517606 0 -2.37517606 0 0 0 Z " fill="#BB9030" transform="translate(58,43)"/>
<path d="M0 0 C-2.89299702 2.37560964 -5.93751729 3.99079947 -9.28076172 5.65234375 C-15.23982052 8.48108156 -15.23982052 8.48108156 -19.13671875 13.5234375 C-19.35489129 15.79100127 -19.36376674 17.75503952 -19 20 C-19.33 20 -19.66 20 -20 20 C-20 17.36 -20 14.72 -20 12 C-20.99 12 -21.98 12 -23 12 C-22.39885328 8.34342616 -22.06889294 8.05265757 -18.8671875 5.60546875 C-17.54461458 4.78616404 -16.2134473 3.98060665 -14.875 3.1875 C-14.22273437 2.76791016 -13.57046875 2.34832031 -12.8984375 1.91601562 C-8.25446339 -0.8805045 -5.45110472 -1.38047457 0 0 Z " fill="#55478A" transform="translate(23,1)"/>
<path d="M0 0 C0.99 0 1.98 0 3 0 C3 9.24 3 18.48 3 28 C2.01 27.67 1.02 27.34 0 27 C0 18.09 0 9.18 0 0 Z " fill="#252336" transform="translate(0,13)"/>
<path d="M0 0 C2.97 1.65 5.94 3.3 9 5 C9 7.64 9 10.28 9 13 C5.89656201 11.79310745 2.98806107 10.49403054 0 9 C0 6.03 0 3.06 0 0 Z " fill="#BEB2E0" transform="translate(3,21)"/>
<path d="M0 0 C6.75 0.875 6.75 0.875 9 2 C8.67 2.99 8.34 3.98 8 5 C2.25 3.375 2.25 3.375 0 0 Z " fill="#D7CEEB" transform="translate(21,10)"/>
<path d="M0 0 C0.33 0 0.66 0 1 0 C1 2.64 1 5.28 1 8 C2.32 8.66 3.64 9.32 5 10 C3.02 10.99 3.02 10.99 1 12 C0 11 0 11 -0.09765625 8.49609375 C-0.08605469 7.48675781 -0.07445312 6.47742187 -0.0625 5.4375 C-0.05347656 4.42558594 -0.04445312 3.41367187 -0.03515625 2.37109375 C-0.02355469 1.58863281 -0.01195312 0.80617188 0 0 Z " fill="#5A4268" transform="translate(3,30)"/>
</svg>
