<?xml version="1.0" encoding="utf-8"?>
<!-- Svg Vector Icons : http://www.onlinewebfonts.com/icon -->
<!DOCTYPE svg PUBLIC "-//W3C//DTD SVG 1.1//EN" "http://www.w3.org/Graphics/SVG/1.1/DTD/svg11.dtd">
<svg version="1.1" xmlns="http://www.w3.org/2000/svg" xmlns:xlink="http://www.w3.org/1999/xlink" x="0px" y="0px" viewBox="0 0 256 256" enable-background="new 0 0 256 256" xml:space="preserve">
<metadata> Svg Vector Icons : http://www.onlinewebfonts.com/icon </metadata>
<g><g><g><path fill="#000000" d="M120.4,35.6c-9.9,3.3-17.5,12-19.7,22.3c-1,4.6-1,7.5,0,12.1c2.2,10.5,10.1,19.2,20.4,22.5c5.5,1.7,12.5,1.8,17.9,0.1c9.4-3,16.2-9.9,19.4-19.3c1.9-5.8,2-5.7-2.2-4.3c-13.6,4.7-28.5-3.9-31.9-18.3c-0.9-3.9-0.4-10.8,1-14l1.1-2.5h-1.2C124.5,34.4,122.4,34.9,120.4,35.6z"/><path fill="#000000" d="M10,161.3v60.3h6.9h6.9v-13.8v-13.8h52.6H129v-12.7v-12.7H76.4H23.8v-33.9V101h-6.9H10V161.3z"/><path fill="#000000" d="M48.9,115.7c-11.3,4.1-16.7,16.8-11.4,27.4c3.5,7.1,9.9,11.1,17.9,11.1c4,0,4.7-0.2,8.3-2C68,150,71.1,147,73,143c4.7-9.9,0.5-21.5-9.5-26.2C59.1,114.7,53,114.2,48.9,115.7z"/><path fill="#000000" d="M96.5,137.3c-8.3,2-15,7.4-18.7,15.1c-1.2,2.4-2.3,5.3-2.5,6.4l-0.3,2h27h27v-12.2v-12.2l-14.7,0.1C103.6,136.5,98.8,136.7,96.5,137.3z"/><path fill="#000000" d="M137.5,165.3v28.8h47.3h47.3v13.8v13.8h6.9h6.9l-0.2-30.8c-0.2-28-0.3-31.1-1.2-33.7c-2.5-7.7-7.4-13.6-14-17.1c-6.7-3.5-6.3-3.5-52-3.5h-41.2V165.3z"/></g></g></g>
</svg>